<?xml version="1.0" encoding="UTF-8" standalone="no"?>
<!DOCTYPE svg PUBLIC "-//W3C//DTD SVG 1.1//EN" "http://www.w3.org/Graphics/SVG/1.1/DTD/svg11.dtd">
<svg width="100%" height="100%" viewBox="0 0 640 512" version="1.1" xmlns="http://www.w3.org/2000/svg" xmlns:xlink="http://www.w3.org/1999/xlink" xml:space="preserve" xmlns:serif="http://www.serif.com/" style="fill-rule:evenodd;clip-rule:evenodd;stroke-linejoin:round;stroke-miterlimit:2;">
    <path d="M438.9,132.1C436.6,135.9 431.7,137.1 427.9,134.9C424.1,132.6 422.9,127.7 425.1,123.9L497.1,3.884C499.4,0.095 504.3,-1.133 508.1,1.14C511.9,3.413 513.1,8.327 510.9,12.12L438.9,132.1ZM255.1,16C194.1,16 143.1,66.14 143.1,128C143.1,132.4 140.4,136 135.1,136C131.6,136 127.1,132.4 127.1,128C127.1,57.31 185.3,0 255.1,0C326.7,0 384,57.31 384,128C384,132.4 380.4,136 376,136C371.6,136 368,132.4 368,128C368,66.14 317.9,16 255.1,16ZM320,189.3L567.8,153.9C578.7,152.3 589.3,158.4 593.4,168.7L626.6,251.7C633.8,269.6 623.6,289.7 604.1,294.6L437.3,338.1C420.8,342.3 403.5,335.8 394,321.7L320,211.7L245.1,321.7C236.5,335.8 219.2,342.3 202.7,338.1L35.04,294.6C16.38,289.7 6.201,269.6 13.36,251.7L46.57,168.7C50.68,158.4 61.29,152.3 72.25,153.9L320,189.3ZM28.22,257.7C24.64,266.6 29.73,276.7 39.06,279.1L206.7,322.6C216.6,325.1 226.1,321.2 232.7,312.7L306.2,203.4L69.98,169.7C66.33,169.2 62.79,171.2 61.42,174.6L28.22,257.7ZM333.8,203.4L407.3,312.7C413,321.2 423.4,325.1 433.3,322.6L600.9,279.1C610.3,276.7 615.4,266.6 611.8,257.7L578.6,174.6C577.2,171.2 573.7,169.2 570,169.7L333.8,203.4ZM560,336.1L576,331.6L576,410.5C576,432.5 561,451.7 539.6,457.1L331.6,509.1C323.1,511 316,511 308.4,509.1L100.4,457.1C78.99,451.7 63.1,432.5 63.1,410.5L63.1,331.6L79.1,336.1L79.1,410.5C79.1,425.2 89.99,438 104.2,441.6L311.1,493.5L311.1,296C311.1,291.6 315.6,288 319.1,288C324.4,288 328,291.6 328,296L328,493.5L535.8,441.6C550,438 560,425.2 560,410.5L560,336.1Z" style="fill-rule:nonzero;"/>
</svg>
