<?xml version="1.0" encoding="UTF-8" standalone="no"?>
<!DOCTYPE svg PUBLIC "-//W3C//DTD SVG 1.1//EN" "http://www.w3.org/Graphics/SVG/1.1/DTD/svg11.dtd">
<svg width="100%" height="100%" viewBox="0 0 640 512" version="1.1" xmlns="http://www.w3.org/2000/svg" xmlns:xlink="http://www.w3.org/1999/xlink" xml:space="preserve" xmlns:serif="http://www.serif.com/" style="fill-rule:evenodd;clip-rule:evenodd;stroke-linejoin:round;stroke-miterlimit:2;">
    <path d="M632,416L128,416L128,72C128,29.59 101.7,0 64,0L8,0C3.594,0 0,3.594 0,8C0,12.406 3.594,16 8,16L64,16C97.16,16 112,44.12 112,72L112,424C112,428.406 115.594,432 120,432L172.46,432C164.8,440.5 160,451.6 160,464C160,490.5 181.5,512 208,512C234.5,512 256,490.5 256,464C256,451.65 251.203,440.51 243.54,432L460.44,432C452.776,440.508 448.03,451.65 448.03,464C448.03,490.51 469.51,512 496.02,512C522.53,512 544.03,490.51 544.03,464C544.03,451.65 539.178,440.51 531.52,432L632,432C636.406,432 640,428.404 640,423.998C640,419.592 636.4,416 632,416ZM208,496C190.36,496 176,481.64 176,464C176,446.36 190.36,432 208,432C225.64,432 240,446.36 240,464C240,481.64 225.6,496 208,496ZM496,496C478.36,496 464,481.64 464,464C464,446.36 478.36,432 496,432C513.64,432 528,446.36 528,464C528,481.64 513.6,496 496,496ZM240,352L528,352C554.51,352 576,330.51 576,304L576,176C576,149.5 554.5,128 528,128L480,128L480,72C480,49.94 462.1,32 440,32L328,32C305.9,32 288,49.94 288,72L288,128L240,128C213.5,128 192,149.5 192,176L192,304C192,330.5 213.5,352 240,352ZM496,144L528,144C545.64,144 560,158.36 560,176L560,304C560,321.64 545.64,336 528,336L496,336L496,144ZM304,72C304,58.78 314.78,48 328,48L440,48C453.22,48 464,58.78 464,72L464,128L304,128L304,72ZM288,144L480,144L480,336L288,336L288,144ZM208,176C208,158.36 222.36,144 240,144L272,144L272,336L240,336C222.36,336 208,321.64 208,304L208,176Z" style="fill-rule:nonzero;"/>
</svg>
