<?xml version="1.0" encoding="UTF-8" standalone="no"?>
<!DOCTYPE svg PUBLIC "-//W3C//DTD SVG 1.1//EN" "http://www.w3.org/Graphics/SVG/1.1/DTD/svg11.dtd">
<svg width="100%" height="100%" viewBox="0 0 512 512" version="1.1" xmlns="http://www.w3.org/2000/svg" xmlns:xlink="http://www.w3.org/1999/xlink" xml:space="preserve" xmlns:serif="http://www.serif.com/" style="fill-rule:evenodd;clip-rule:evenodd;stroke-linejoin:round;stroke-miterlimit:2;">
    <path d="M256,0C114.6,0 0,114.6 0,256C0,397.4 114.6,512 256,512C397.4,512 512,397.4 512,256C512,114.6 397.4,0 256,0ZM256,480C132.5,480 32,379.5 32,256C32,132.5 132.5,32 256,32C379.5,32 480,132.5 480,256C480,379.5 379.5,480 256,480ZM240,344C226.75,344 216,354.75 216,368C216,381.25 226.75,392 240,392C253.25,392 264,381.25 264,368C264,354.75 253.3,344 240,344ZM285.6,128L226.4,128C189.8,128 160,157.8 160,194.4L160,204C160,212.844 167.156,220 176,220C184.844,220 192,212.8 192,204L192,194.4C192,175.4 207.4,160 226.4,160L285.65,160C304.6,160 320,175.4 320,194.4C320,206.88 313.219,218.4 302.94,224.12L242.5,254.3C231.1,260.7 224,272.7 224,285.8L224,304C224,312.8 231.2,320 240,320C248.8,320 256,312.8 256,304L256,285.8C256,284.347 256.781,283.003 257.438,282.628L317.848,252.408C338.9,240.7 352,218.5 352,194.4C352,157.8 322.2,128 285.6,128Z" style="fill-rule:nonzero;"/>
</svg>
