<?xml version="1.0" encoding="UTF-8" standalone="no"?>
<!DOCTYPE svg PUBLIC "-//W3C//DTD SVG 1.1//EN" "http://www.w3.org/Graphics/SVG/1.1/DTD/svg11.dtd">
<svg width="100%" height="100%" viewBox="0 0 512 512" version="1.1" xmlns="http://www.w3.org/2000/svg" xmlns:xlink="http://www.w3.org/1999/xlink" xml:space="preserve" xmlns:serif="http://www.serif.com/" style="fill-rule:evenodd;clip-rule:evenodd;stroke-linejoin:round;stroke-miterlimit:2;">
    <path d="M264,253.6L326.7,347.6C329.1,351.2 328.1,356.2 324.4,358.7C320.8,361.1 315.8,360.1 313.3,356.4L249.3,260.4C248.5,259.1 247.1,257.6 247.1,256L247.1,104C247.1,99.58 251.6,96 255.1,96C260.4,96 264,99.58 264,104L264,253.6ZM512,256C512,397.4 397.4,512 256,512C114.6,512 0,397.4 0,256C0,114.6 114.6,0 256,0C397.4,0 512,114.6 512,256ZM256,16C123.5,16 16,123.5 16,256C16,388.5 123.5,496 256,496C388.5,496 496,388.5 496,256C496,123.5 388.5,16 256,16Z" style="fill-rule:nonzero;"/>
</svg>
