<?xml version="1.0" encoding="UTF-8" standalone="no"?>
<!DOCTYPE svg PUBLIC "-//W3C//DTD SVG 1.1//EN" "http://www.w3.org/Graphics/SVG/1.1/DTD/svg11.dtd">
<svg width="100%" height="100%" viewBox="0 0 512 512" version="1.1" xmlns="http://www.w3.org/2000/svg" xmlns:xlink="http://www.w3.org/1999/xlink" xml:space="preserve" xmlns:serif="http://www.serif.com/" style="fill-rule:evenodd;clip-rule:evenodd;stroke-linejoin:round;stroke-miterlimit:2;">
    <path d="M0,128C0,92.65 28.65,64 64,64L448,64C483.3,64 512,92.65 512,128L512,384C512,419.3 483.3,448 448,448L64,448C28.65,448 0,419.3 0,384L0,128ZM32,128L32,167.9L227.6,311.3C244.5,323.7 267.5,323.7 284.4,311.3L480,167.9L480,128C480,110.3 465.7,96 448,96L63.1,96C46.33,96 31.1,110.3 31.1,128L32,128ZM32,207.6L32,384C32,401.7 46.33,416 64,416L448,416C465.7,416 480,401.7 480,384L480,207.6L303.3,337.1C275.1,357.8 236.9,357.8 208.7,337.1L32,207.6Z" style="fill-rule:nonzero;"/>
</svg>
