<?xml version="1.0" encoding="UTF-8" standalone="no"?>
<!DOCTYPE svg PUBLIC "-//W3C//DTD SVG 1.1//EN" "http://www.w3.org/Graphics/SVG/1.1/DTD/svg11.dtd">
<svg width="100%" height="100%" viewBox="0 0 512 512" version="1.1" xmlns="http://www.w3.org/2000/svg" xmlns:xlink="http://www.w3.org/1999/xlink" xml:space="preserve" xmlns:serif="http://www.serif.com/" style="fill-rule:evenodd;clip-rule:evenodd;stroke-linejoin:round;stroke-miterlimit:2;">
    <path d="M0,128C0,92.65 28.65,64 64,64L448,64C483.3,64 512,92.65 512,128L512,384C512,419.3 483.3,448 448,448L64,448C28.65,448 0,419.3 0,384L0,128ZM16,128L16,156.2L220.8,321.4C241.4,337.9 270.6,337.9 291.2,321.4L496,156.2L496,128C496,101.5 474.5,80 448,80L63.1,80C37.49,80 15.1,101.5 15.1,128L16,128ZM16,176.7L16,384C16,410.5 37.49,432 64,432L448,432C474.5,432 496,410.5 496,384L496,176.7L301.2,333.8C274.8,355.1 237.2,355.1 210.8,333.8L16,176.7Z" style="fill-rule:nonzero;"/>
</svg>
