<?xml version="1.0" encoding="UTF-8" standalone="no"?>
<!DOCTYPE svg PUBLIC "-//W3C//DTD SVG 1.1//EN" "http://www.w3.org/Graphics/SVG/1.1/DTD/svg11.dtd">
<svg width="100%" height="100%" viewBox="0 0 640 512" version="1.1" xmlns="http://www.w3.org/2000/svg" xmlns:xlink="http://www.w3.org/1999/xlink" xml:space="preserve" xmlns:serif="http://www.serif.com/" style="fill-rule:evenodd;clip-rule:evenodd;stroke-linejoin:round;stroke-miterlimit:2;">
    <path d="M386.061,228.496C387.895,238.188 389.204,247.88 389.204,260.452C389.204,370.205 315.599,448 204.8,448C98.716,448 12.8,362.085 12.8,256C12.8,149.915 98.716,64 204.8,64C256.664,64 299.883,82.859 333.411,114.292L281.285,164.322C267.14,150.701 242.257,134.723 204.8,134.723C139.316,134.723 85.88,188.944 85.88,256C85.88,323.056 139.316,377.277 204.8,377.277C280.761,377.277 309.313,322.532 313.765,294.504L204.8,294.504L204.8,228.495L386.061,228.495L386.061,228.496ZM571.467,234.933L571.467,179.2L515.466,179.2L515.466,234.933L459.733,234.933L459.733,290.934L515.466,290.934L515.466,346.667L571.467,346.667L571.467,290.934L627.2,290.934L627.2,234.933L571.467,234.933Z" style="fill-rule:nonzero;"/>
</svg>
