<?xml version="1.0" encoding="UTF-8" standalone="no"?>
<!DOCTYPE svg PUBLIC "-//W3C//DTD SVG 1.1//EN" "http://www.w3.org/Graphics/SVG/1.1/DTD/svg11.dtd">
<svg width="100%" height="100%" viewBox="0 0 384 512" version="1.1" xmlns="http://www.w3.org/2000/svg" xmlns:xlink="http://www.w3.org/1999/xlink" xml:space="preserve" xmlns:serif="http://www.serif.com/" style="fill-rule:evenodd;clip-rule:evenodd;stroke-linejoin:round;stroke-miterlimit:2;">
    <path d="M168.3,499.2C116.1,435 0,279.4 0,192C0,85.96 85.96,0 192,0C298,0 384,85.96 384,192C384,279.4 267,435 215.7,499.2C203.4,514.5 180.6,514.5 168.3,499.2ZM192,256C227.3,256 256,227.3 256,192C256,156.7 227.3,128 192,128C156.7,128 128,156.7 128,192C128,227.3 156.7,256 192,256Z" style="fill-rule:nonzero;"/>
</svg>
