<?xml version="1.0" encoding="UTF-8" standalone="no"?>
<!DOCTYPE svg PUBLIC "-//W3C//DTD SVG 1.1//EN" "http://www.w3.org/Graphics/SVG/1.1/DTD/svg11.dtd">
<svg width="100%" height="100%" viewBox="0 0 512 512" version="1.1" xmlns="http://www.w3.org/2000/svg" xmlns:xlink="http://www.w3.org/1999/xlink" xml:space="preserve" xmlns:serif="http://www.serif.com/" style="fill-rule:evenodd;clip-rule:evenodd;stroke-linejoin:round;stroke-miterlimit:2;">
    <path d="M484.6,330.6L382.8,286.94C364.3,279.252 342.6,284.565 330.05,300.02L296.91,340.49C244.2,311.8 200.3,267.9 171.6,215.2L212.12,182.01C227.79,169.09 232.95,147.85 224.96,129.17L181.4,27.37C172.7,7.279 150.8,-3.737 129.6,1.154L35.17,23.06C14.47,27.78 0,45.9 0,67.12C0,312.4 199.6,512 444.9,512C466.13,512 484.31,497.56 489.07,476.87L510.87,382.4C515.7,361.1 504.7,339.3 484.6,330.6ZM457.9,469.7C456.525,475.669 451.056,480.01 444.92,480.01C217.22,480.01 32.02,294.81 32.02,67.11C32.02,60.922 36.254,55.63 42.36,54.23L136.77,32.32C137.77,32.086 138.77,31.976 139.754,31.976C144.988,31.976 149.864,35.07 152.004,40.007L195.584,141.707C197.9,147.2 196.4,153.5 191.8,157.3L141.3,198.7C135.6,203.4 133.8,211.4 137.1,218.1C170.48,285.91 226.21,341.6 294,375C300.641,378.313 308.73,376.531 313.44,370.781L354.83,320.281C358.533,315.718 364.99,314.218 370.33,316.437L471.93,359.997C477.836,362.56 481.086,368.966 479.649,375.217L457.9,469.7Z" style="fill-rule:nonzero;"/>
</svg>
