<?xml version="1.0" encoding="UTF-8" standalone="no"?>
<!DOCTYPE svg PUBLIC "-//W3C//DTD SVG 1.1//EN" "http://www.w3.org/Graphics/SVG/1.1/DTD/svg11.dtd">
<svg width="100%" height="100%" viewBox="0 0 512 512" version="1.1" xmlns="http://www.w3.org/2000/svg" xmlns:xlink="http://www.w3.org/1999/xlink" xml:space="preserve" xmlns:serif="http://www.serif.com/" style="fill-rule:evenodd;clip-rule:evenodd;stroke-linejoin:round;stroke-miterlimit:2;">
    <path d="M493.1,351.2L384.6,304.7C371.82,299.169 356.82,302.894 348.13,313.675L304.05,367.475C234.8,333.475 178.55,277.175 144.55,207.975L198.38,163.915C209.1,155.1 212.8,140.2 207.3,127.5L160.8,18.92C154.706,5.01 139.67,-2.61 124.98,0.8L24.22,24.05C9.969,27.3 0,39.85 0,54.5C0,306.8 205.2,512 457.5,512C472.17,512 484.69,502.032 487.96,487.78L511.21,386.98C514.6,372.4 506.1,357.2 493.1,351.2ZM495.6,383.4L472.35,484.2C470.8,491.1 464.6,496 457.5,496C214,496 16,297.9 16,54.5C16,47.344 20.859,41.25 27.81,39.62L128.61,16.37C135.813,14.714 143.22,18.495 146.19,25.308L192.71,133.808C195.37,140.052 193.497,147.308 188.304,151.558L124.774,203.558C187.094,337.058 293.474,380.258 308.574,387.358L360.594,323.828C364.813,318.578 372.114,316.766 378.324,319.453L486.824,365.953C493.5,368.9 497.3,376.3 495.6,383.4Z" style="fill-rule:nonzero;"/>
</svg>
