<svg height="197.306" viewBox="0 0 618.746 197.306" width="618.746" xmlns="http://www.w3.org/2000/svg">
<g data-name="AG&amp;P-NEW_horizontal_full_color_RGB" id="AG_P-NEW_horizontal_full_color_RGB" transform="translate(-118.63 -120.79)">
<path d="M234.63,205.49l-18-18-14.96,14.97,18,17.99-18,18.01,14.96,14.97,18-18.02,18,18.02,14.97-14.97-25.49-25.48Z" data-name="Path 23" fill="#f0662d" id="Path_23"></path>
<path d="M167.92,138.79l-18-18-14.95,14.97,17.99,17.99-18.01,17.99,14.97,14.97,18.01-18,17.98,18,14.96-14.97L175.4,146.27Z" data-name="Path 24" fill="#f0662d" id="Path_24"></path>
<path d="M184.54,219.17l-14.95-14.96L151.6,222.2l-18.01-17.99-14.96,14.96,18,18,14.96,14.96,18,18,14.95-14.97-17.98-17.99Z" data-name="Path 25" fill="#f0662d" id="Path_25"></path>
<path d="M267.75,135.94l-14.92-14.96-18.01,18-18-18-14.97,14.96,18.01,18,14.96,14.95,18.01,18.01,14.92-14.98-17.96-17.98Z" data-name="Path 26" fill="#f0662d" id="Path_26"></path>
<path d="M337.39,136,290.24,255.13h28.59l8.51-22.81H371l8.48,22.81H408.7L361.9,136Zm-1.93,74.55,5.84-15.65q1.36-4.26,2.89-8.26c1-2.66,2-5.33,2.81-8,.76-2.37,1.52-4.78,2.28-7.2.72,2.36,1.47,4.76,2.23,7.2q1.37,4.33,2.73,8.43t2.72,7.66l5.89,15.82Z" data-name="Path 27" id="Path_27"></path>
<path d="M522.57,193.34a45.573,45.573,0,0,0-.51-5.1h-56v22.63h29.05a18.41,18.41,0,0,1-2,7.24,22.119,22.119,0,0,1-5.44,6.89,26.27,26.27,0,0,1-8.09,4.6,29,29,0,0,1-10,1.7,35.31,35.31,0,0,1-14-2.81,34.9,34.9,0,0,1-11.32-7.66,35.43,35.43,0,0,1-7.49-11.49,37.37,37.37,0,0,1-2.72-14.29,38.889,38.889,0,0,1,2.55-14.22,33.51,33.51,0,0,1,31.83-21.7,35.88,35.88,0,0,1,10.9,1.62,44.809,44.809,0,0,1,9.61,4.34,50,50,0,0,1,8.77,6.81l17.53-18.56a51.33,51.33,0,0,0-12.09-10.21,64.38,64.38,0,0,0-15.91-7,66.42,66.42,0,0,0-18.64-2.55,70.44,70.44,0,0,0-25.78,4.6,61.07,61.07,0,0,0-20.51,12.93A57.571,57.571,0,0,0,409,170.62a62.32,62.32,0,0,0-4.69,24.43,66.92,66.92,0,0,0,4.43,24.59,56.441,56.441,0,0,0,12.77,19.66,57.9,57.9,0,0,0,19.91,12.93,69.46,69.46,0,0,0,25.87,4.6,61.549,61.549,0,0,0,22.13-3.91,53.941,53.941,0,0,0,17.7-10.9,49.129,49.129,0,0,0,11.66-16.59,52.681,52.681,0,0,0,4.17-21.19c0-1,0-2.56-.09-4.6S522.68,195.5,522.57,193.34Z" data-name="Path 28" id="Path_28"></path>
<path d="M732.17,155.05a38.27,38.27,0,0,0-13.95-14,39.051,39.051,0,0,0-20-5.11h-51.4V255.13h28.93V215.3h22.47a38,38,0,0,0,20-5.28,39,39,0,0,0,13.95-14.38,41,41,0,0,0,5.2-20.68,38.631,38.631,0,0,0-5.2-19.91ZM705.88,183a14.25,14.25,0,0,1-4.94,5.11,12.77,12.77,0,0,1-6.81,1.87H675.24V161.51h18.89a13.72,13.72,0,0,1,6.81,1.71,13.26,13.26,0,0,1,4.94,4.76,14.2,14.2,0,0,1,1.87,7.49A14.74,14.74,0,0,1,705.88,183Z" data-name="Path 29" id="Path_29"></path>
<path d="M309.23,304.65a10.22,10.22,0,0,0,3.71-3.62,9.51,9.51,0,0,0,1.38-5,9.75,9.75,0,0,0-1.38-5.14,10.15,10.15,0,0,0-3.74-3.62,10.32,10.32,0,0,0-5.2-1.33H290.25v31.67H296V306h6.08l6.55,11.63h7l-7.27-12.56A4.279,4.279,0,0,0,309.23,304.65ZM296,291.23h7a6,6,0,0,1,2.8.63,4.59,4.59,0,0,1,2.58,4.3,5.29,5.29,0,0,1-.54,2.4,4.06,4.06,0,0,1-3.8,2.31H296Z" data-name="Path 30" id="Path_30"></path>
<path d="M338.62,296.59a10.879,10.879,0,0,0-3.53-2.46,10.55,10.55,0,0,0-4.39-.91,12.62,12.62,0,0,0-4.9.93,11,11,0,0,0-3.85,2.62,12.22,12.22,0,0,0-2.51,4,13.749,13.749,0,0,0-.91,5.11,12.19,12.19,0,0,0,1.61,6.27,11.57,11.57,0,0,0,4.48,4.32,13.54,13.54,0,0,0,6.63,1.58,13.389,13.389,0,0,0,3.39-.45,16.208,16.208,0,0,0,3.28-1.25,11.65,11.65,0,0,0,2.78-1.92l-2.76-3.84a10.661,10.661,0,0,1-3,1.94,8.46,8.46,0,0,1-3.07.54,9,9,0,0,1-4.19-.92,6.59,6.59,0,0,1-2.76-2.65,7.47,7.47,0,0,1-.85-2.58h17.57v-1.95a12.77,12.77,0,0,0-.74-4.68A10.59,10.59,0,0,0,338.62,296.59ZM327,299a7.51,7.51,0,0,1,3.73-.86,5.84,5.84,0,0,1,2.65.61,5.44,5.44,0,0,1,2,1.68,5,5,0,0,1,.9,2.46v.23H324.15a7.261,7.261,0,0,1,.54-1.65A5.51,5.51,0,0,1,327,299Z" data-name="Path 31" id="Path_31"></path>
<path d="M354.26,290.42a2,2,0,0,1,.91-.89,3.57,3.57,0,0,1,1.51-.29,3.28,3.28,0,0,1,1.25.27,4.641,4.641,0,0,1,1.24.77l1.72-4.21a6.37,6.37,0,0,0-2.21-1.42,8.22,8.22,0,0,0-6.75.45,7,7,0,0,0-2.62,2.67,7.81,7.81,0,0,0-.95,3.87v2.62h-3.71v4.89h3.71v18.46H354V299.15h5.38v-4.89H354v-2.44A3.18,3.18,0,0,1,354.26,290.42Z" data-name="Path 32" id="Path_32"></path>
<path d="M379.31,308.06a5.439,5.439,0,0,1-.41,2.11,5,5,0,0,1-1.13,1.67,5.109,5.109,0,0,1-1.7,1.09,5.92,5.92,0,0,1-2.15.38,4.94,4.94,0,0,1-2.71-.72,4.54,4.54,0,0,1-1.72-2.06,8,8,0,0,1-.59-3.24V293.76h-5.56v14.71a12.16,12.16,0,0,0,1,5.13,7.34,7.34,0,0,0,2.9,3.31,8.44,8.44,0,0,0,4.48,1.15,9,9,0,0,0,3.75-.79,9.621,9.621,0,0,0,3.05-2.13,8.069,8.069,0,0,0,.87-1.08l.06,3.55h5.43V293.76h-5.56Z" data-name="Path 33" id="Path_33"></path>
<path d="M409.84,296.59a10.88,10.88,0,0,0-3.53-2.46,10.55,10.55,0,0,0-4.39-.91,12.62,12.62,0,0,0-4.9.93,11,11,0,0,0-3.85,2.62,12.22,12.22,0,0,0-2.51,4,13.749,13.749,0,0,0-.91,5.11,12.19,12.19,0,0,0,1.61,6.27,11.57,11.57,0,0,0,4.48,4.32,13.54,13.54,0,0,0,6.63,1.58,13.389,13.389,0,0,0,3.39-.45,16.208,16.208,0,0,0,3.28-1.25,11.65,11.65,0,0,0,2.78-1.92l-2.76-3.84a10.661,10.661,0,0,1-3,1.94,8.46,8.46,0,0,1-3.07.54,9,9,0,0,1-4.19-.92,6.59,6.59,0,0,1-2.76-2.65,7.47,7.47,0,0,1-.85-2.58h17.57v-1.95a12.77,12.77,0,0,0-.74-4.68A10.589,10.589,0,0,0,409.84,296.59ZM398.19,299a7.51,7.51,0,0,1,3.73-.86,5.841,5.841,0,0,1,2.65.61,5.44,5.44,0,0,1,2,1.68,5,5,0,0,1,.9,2.46v.23h-12.1a7.259,7.259,0,0,1,.54-1.65,5.51,5.51,0,0,1,2.28-2.47Z" data-name="Path 34" id="Path_34"></path>
<rect data-name="Rectangle 2" height="33.48" id="Rectangle_2" transform="translate(417.83 284.13)" width="5.61"></rect>
<path d="M448.51,296.59a11,11,0,0,0-3.53-2.46,10.589,10.589,0,0,0-4.39-.91,12.671,12.671,0,0,0-4.91.93,11.07,11.07,0,0,0-3.84,2.62,12.419,12.419,0,0,0-2.52,4,14,14,0,0,0-.9,5.11,12.1,12.1,0,0,0,1.61,6.27,11.57,11.57,0,0,0,4.48,4.32,14.09,14.09,0,0,0,10,1.13,16.44,16.44,0,0,0,3.28-1.25,11.651,11.651,0,0,0,2.78-1.92l-2.76-3.84a10.94,10.94,0,0,1-3,1.94,8.52,8.52,0,0,1-3.08.54,8.91,8.91,0,0,1-4.18-.92,6.59,6.59,0,0,1-2.76-2.65,7.48,7.48,0,0,1-.86-2.58H451.5v-1.95a12.78,12.78,0,0,0-.75-4.68A10.57,10.57,0,0,0,448.51,296.59ZM436.86,299a7.48,7.48,0,0,1,3.73-.86,5.84,5.84,0,0,1,2.65.61,5.53,5.53,0,0,1,2,1.68,5,5,0,0,1,.9,2.46v.23H434a7.789,7.789,0,0,1,.54-1.65A5.59,5.59,0,0,1,436.86,299Z" data-name="Path 35" id="Path_35"></path>
<path d="M473.65,296.51a8.529,8.529,0,0,0-1.36-1.23,10.7,10.7,0,0,0-11.87-.41,11.14,11.14,0,0,0-4,4.41,13.69,13.69,0,0,0-1.45,6.38,13.53,13.53,0,0,0,1.47,6.41,11.569,11.569,0,0,0,4,4.39,10.522,10.522,0,0,0,11.61-.3,8.641,8.641,0,0,0,1.69-1.6l.07,3.05h5.39V284.13h-5.57ZM473,309.65a6.78,6.78,0,0,1-2.33,2.71,6.42,6.42,0,0,1-6.88,0,6.7,6.7,0,0,1-2.33-2.71,9.8,9.8,0,0,1,0-7.94,6.48,6.48,0,0,1,2.33-2.72,6.323,6.323,0,0,1,9.21,2.72,9.91,9.91,0,0,1,0,7.94Z" data-name="Path 36" id="Path_36"></path>
<path d="M488.2,310.87a3.18,3.18,0,0,0-2.47,1,3.68,3.68,0,0,0-.93,2.6,3.79,3.79,0,0,0,.89,2.67,3.26,3.26,0,0,0,2.51.95,3.17,3.17,0,0,0,2.46-1,4.32,4.32,0,0,0,0-5.29,3.3,3.3,0,0,0-2.46-.93Z" data-name="Path 37" id="Path_37"></path>
<path d="M529.05,285.94H504.8v5.43h9.05v26.24h5.88V291.37h9.32Z" data-name="Path 38" id="Path_38"></path>
<path d="M547.08,294.87a13.44,13.44,0,0,0-12.72,0,11.871,11.871,0,0,0-4.43,4.41,13.3,13.3,0,0,0,0,12.76,12,12,0,0,0,4.43,4.42,13.44,13.44,0,0,0,12.72,0,11.77,11.77,0,0,0,4.41-4.42,13.45,13.45,0,0,0,0-12.76,11.671,11.671,0,0,0-4.41-4.41Zm-.48,14.59a7,7,0,0,1-2.4,2.67,6.1,6.1,0,0,1-3.46,1,6.33,6.33,0,0,1-3.5-1,6.711,6.711,0,0,1-2.42-2.67,8.09,8.09,0,0,1-.86-3.8,8.26,8.26,0,0,1,.86-3.82,6.58,6.58,0,0,1,2.42-2.67,6.47,6.47,0,0,1,3.5-1,6.24,6.24,0,0,1,3.46,1,6.84,6.84,0,0,1,2.4,2.65,7.73,7.73,0,0,1,.84,3.84,7.63,7.63,0,0,1-.84,3.8Z" data-name="Path 39" id="Path_39"></path>
<path d="M589.2,285.94h-6.6l-7.86,12.36-8.61-12.36h-6.88l12.49,17.65v14.02h5.88V303.5Z" data-name="Path 40" id="Path_40"></path>
<path d="M606.32,294.87a13.44,13.44,0,0,0-12.72,0,11.87,11.87,0,0,0-4.43,4.41,13.3,13.3,0,0,0,0,12.76,12,12,0,0,0,4.43,4.42,13.44,13.44,0,0,0,12.72,0,11.77,11.77,0,0,0,4.41-4.42,13.45,13.45,0,0,0,0-12.76,11.67,11.67,0,0,0-4.41-4.41Zm-.48,14.59a7,7,0,0,1-2.4,2.67,6.1,6.1,0,0,1-3.46,1,6.33,6.33,0,0,1-3.5-1,6.71,6.71,0,0,1-2.42-2.67,8.09,8.09,0,0,1-.86-3.8,8.261,8.261,0,0,1,.86-3.82,6.58,6.58,0,0,1,2.42-2.67,6.47,6.47,0,0,1,3.5-1,6.24,6.24,0,0,1,3.46,1,6.909,6.909,0,0,1,2.4,2.65,7.73,7.73,0,0,1,.84,3.84,7.63,7.63,0,0,1-.84,3.8Z" data-name="Path 41" id="Path_41"></path>
<path d="M633.06,308.06a5.44,5.44,0,0,1-.41,2.11,5,5,0,0,1-1.13,1.67,5.11,5.11,0,0,1-1.7,1.09,5.92,5.92,0,0,1-2.15.38,4.94,4.94,0,0,1-2.71-.72,4.54,4.54,0,0,1-1.72-2.06,8,8,0,0,1-.59-3.24V293.76h-5.56v14.71a12.159,12.159,0,0,0,1,5.13,7.341,7.341,0,0,0,2.9,3.31,8.44,8.44,0,0,0,4.48,1.15,9,9,0,0,0,3.75-.79,9.62,9.62,0,0,0,3-2.13,8.079,8.079,0,0,0,.87-1.08l.06,3.55h5.43V293.76h-5.56Z" data-name="Path 42" id="Path_42"></path>
<path d="M650.2,311.8a3.3,3.3,0,0,0-2.51-.93,3.18,3.18,0,0,0-2.47,1,3.68,3.68,0,0,0-.92,2.6,3.79,3.79,0,0,0,.88,2.67,3.26,3.26,0,0,0,2.51.95,3.15,3.15,0,0,0,2.46-1,4.32,4.32,0,0,0,.05-5.29Z" data-name="Path 43" id="Path_43"></path>
<path d="M605.69,239.69a60.279,60.279,0,0,1-15.44,14.1q-8.24,5-20.15,5a45.9,45.9,0,0,1-14.44-2.27,35.21,35.21,0,0,1-12-6.63,33,33,0,0,1-8.23-10.66,32,32,0,0,1-3.1-14.36,30.7,30.7,0,0,1,2.1-11.5,34.529,34.529,0,0,1,5.7-9.57,41.891,41.891,0,0,1,8.4-7.55,72.189,72.189,0,0,1,10.16-5.79,74.216,74.216,0,0,1-10.08-12.43,27.35,27.35,0,0,1-4.2-15.11,26.26,26.26,0,0,1,2.52-11.67,25.49,25.49,0,0,1,6.72-8.56,28.941,28.941,0,0,1,9.74-5.2,39.77,39.77,0,0,1,23.17-.09,28.77,28.77,0,0,1,9.48,5,22.79,22.79,0,0,1,6.46,8.22,26.54,26.54,0,0,1,2.36,11.5,22.75,22.75,0,0,1-2.27,10.16,30.61,30.61,0,0,1-5.88,8.23,50.7,50.7,0,0,1-8.06,6.54,96.577,96.577,0,0,1-9,5.29L604.86,219l15.94-26.7h16l-22.83,36.6,27.2,27.87H621.81Zm-38.27-40.63a85.011,85.011,0,0,0-7.56,4.45,42.61,42.61,0,0,0-6.72,5.46,24.672,24.672,0,0,0-4.86,6.88,19.461,19.461,0,0,0-1.85,8.56,21,21,0,0,0,1.85,8.9,22.66,22.66,0,0,0,5,7.05,23.229,23.229,0,0,0,7.39,4.7,23.71,23.71,0,0,0,8.9,1.68A25.49,25.49,0,0,0,578,245.4a29.75,29.75,0,0,0,7.14-3.61,45.14,45.14,0,0,0,6.21-5.21q2.94-2.93,5.79-6.29Zm3.52-15.28c2.24-1.23,4.53-2.52,6.89-3.86a38.459,38.459,0,0,0,6.38-4.53,22,22,0,0,0,4.7-5.88,15.77,15.77,0,0,0,1.84-7.72q0-6.56-4.45-10.24a16.16,16.16,0,0,0-10.66-3.7,18,18,0,0,0-12.09,4.29q-5,4.28-5,11.66a14.84,14.84,0,0,0,2.6,8.65,57.823,57.823,0,0,0,5.62,7Z" data-name="Path 44" id="Path_44"></path>
</g>
</svg>