<svg version="1.2" xmlns="http://www.w3.org/2000/svg" viewBox="0 0 735 211" width="735" height="211">
	<title>WUsnTZ6i</title>
	<style>
		.s0 { fill: none } 
		.s1 { fill: #000000 } 
		.s2 { fill: #ffeb00 } 
	</style>
	<path class="s0" d="m-36-36h808.8v283.5h-808.8z"/>
	<path class="s1" d="m173.2 132l-32.9-95.6c-1.6-4.6-7.5-5.8-10.6-2.1l-17.5 20.7 16.1 46.8c1.4 4-1.5 8.1-5.7 8.1h-56.8l-17.7 20.9c-3.1 3.7-0.4 9.3 4.5 9.3h115c4.1 0 7-4.1 5.6-8.1z"/>
	<path class="s2" d="m95.4 6.2l32.9 95.6c1.4 4-1.5 8.1-5.7 8.1h-114.9c-4.8 0-7.5-5.7-4.5-9.3l81.6-96.5c3.1-3.7 9.1-2.5 10.6 2.1z"/>
	<path class="s1" d="m422.1 191c-4.5-1.4-6.5-2.2-6.5-4.8 0-2.3 3.1-3.1 5.7-3.1 2.3 0 4.8 0.7 6.5 1.8 0.4 0.3 0.9 0.3 1.3 0.2 0.5-0.1 0.8-0.4 1.1-0.9l0.8-1.5c0.4-0.8 0.1-1.7-0.6-2.2-2.4-1.6-5.9-2.6-9-2.6-6.5 0-11 3.4-11 8.4 0 6.5 5.5 8.2 9.9 9.5 4.6 1.4 6.6 2.3 6.6 5 0 2.8-3.2 3.7-6.3 3.7-2.9 0-6.1-1.6-8-3.3-0.4-0.4-0.9-0.6-1.4-0.5-0.5 0.1-1 0.4-1.2 0.8l-0.9 1.5c-0.4 0.7-0.3 1.5 0.3 2 2.9 2.8 7.2 4.6 11.2 4.6 6.9 0 11.5-3.6 11.5-8.8 0.1-6.7-5.5-8.4-10-9.8zm30.3-12c-0.3-0.6-0.9-1-1.5-1h-1.9c-0.7 0-1.2 0.4-1.5 1l-12.8 28.2c-0.2 0.5-0.2 1.1 0.1 1.6 0.3 0.5 0.8 0.8 1.4 0.8h1.9c0.7 0 1.2-0.4 1.5-1l3.2-7.1h14.4l3.2 7.1c0.3 0.6 0.9 1 1.5 1h1.9c0.6 0 1.1-0.3 1.4-0.8 0.3-0.5 0.4-1.1 0.1-1.6zm-7.4 17.5l4.9-10.9 4.9 10.9zm28.7-18.5h-1.7c-0.9 0-1.7 0.8-1.7 1.7v28.2c0 0.9 0.8 1.7 1.7 1.7h1.7c0.9 0 1.7-0.8 1.7-1.7v-28.2c-0.1-0.9-0.8-1.7-1.7-1.7zm35.2 0h-1.7c-0.9 0-1.7 0.8-1.7 1.7v20.6l-15.8-21.5c-0.3-0.4-0.8-0.7-1.3-0.7h-2c-0.9 0-1.7 0.8-1.7 1.7v28.2c0 0.9 0.8 1.7 1.7 1.7h1.7c0.9 0 1.7-0.8 1.7-1.7v-20.5l15.8 21.5c0.3 0.4 0.8 0.7 1.3 0.7h2c0.9 0 1.7-0.8 1.7-1.7v-28.2c-0.1-1-0.8-1.8-1.7-1.8zm29.1 0h-20.8c-0.9 0-1.7 0.8-1.7 1.7v1.7c0 0.9 0.8 1.7 1.7 1.7h7.9v24.9c0 0.9 0.8 1.7 1.7 1.7h1.7c0.9 0 1.7-0.8 1.7-1.7v-25h7.9c0.9 0 1.7-0.8 1.7-1.7v-1.7c-0.1-0.8-0.9-1.6-1.8-1.6zm12.4 15.4h-9c-0.9 0-1.7 0.8-1.7 1.7v1.4c0 0.9 0.8 1.7 1.7 1.7h9c0.9 0 1.7-0.8 1.7-1.7v-1.4c0-1-0.8-1.7-1.7-1.7zm35.1-1h-6.5c-0.9 0-1.7 0.8-1.7 1.7v1.7c0 0.9 0.8 1.7 1.7 1.7h3.4v5.2c-2 1.3-4.3 2.1-6.7 2.1-6.2 0-11.3-4.9-11.3-10.9 0-6 5.1-10.9 11.3-10.9 2.9 0 5.7 1.1 7.8 2.9 0.3 0.3 0.8 0.5 1.2 0.4 0.4-0.1 0.9-0.3 1.2-0.6l1-1.2c0.6-0.7 0.5-1.7-0.2-2.3-3-2.7-7-4.1-11-4.1-9 0-16.3 7.1-16.3 15.8 0 8.7 7.3 15.8 16.2 15.8 4 0 8.1-1.5 11.1-4.1 0.4-0.3 0.6-0.8 0.6-1.3v-10.3c-0.1-0.9-0.9-1.6-1.8-1.6zm23.7-14.4c-9 0-16.3 7.1-16.3 15.8 0 8.7 7.3 15.8 16.3 15.8 9 0 16.3-7.1 16.3-15.8 0-8.7-7.3-15.8-16.3-15.8zm0 26.6c-6.2 0-11.2-4.9-11.2-10.9 0-6 5-10.8 11.2-10.8 6.2 0 11.2 4.9 11.2 10.8 0 6.1-5.1 10.9-11.2 10.9zm43-11.7c1.7-1.5 2.6-3.6 2.6-6.2 0-5.3-4-8.7-10.5-8.7h-11.5c-0.9 0-1.7 0.8-1.7 1.7v28.2c0 0.9 0.8 1.7 1.7 1.7h11.6c7.4 0 11.8-3.5 11.8-9.3 0-3.3-1.4-5.9-4-7.4zm-7.9-2.1h-8.2v-7.8h8.2c2.5 0 5.5 0.7 5.5 3.9 0 2.6-1.8 3.9-5.5 3.9zm-8.1 5h8.2c2.6 0 6.9 0.6 6.9 4.3 0 3.7-3.8 4.5-6.9 4.5h-8.2zm40.5-16.8c-0.3-0.6-0.9-1-1.5-1h-1.8c-0.7 0-1.2 0.4-1.5 1l-12.8 28.2c-0.2 0.5-0.2 1.1 0.1 1.6 0.3 0.5 0.8 0.8 1.4 0.8h1.9c0.7 0 1.2-0.4 1.5-1l3.2-7.1h14.4l3.2 7.1c0.3 0.6 0.9 1 1.5 1h1.9c0.6 0 1.1-0.3 1.4-0.8 0.3-0.5 0.3-1.1 0.1-1.6zm-7.3 17.5l4.9-10.9 5 10.9zm28.6-18.5h-1.7c-0.9 0-1.7 0.8-1.7 1.7v28.2c0 0.9 0.8 1.7 1.7 1.7h1.7c0.9 0 1.7-0.8 1.7-1.7v-28.2c0-0.9-0.7-1.7-1.7-1.7zm35.3 0h-1.7c-0.9 0-1.7 0.8-1.7 1.7v20.6l-15.8-21.5c-0.3-0.4-0.8-0.7-1.3-0.7h-2c-0.9 0-1.7 0.8-1.7 1.7v28.2c0 0.9 0.8 1.7 1.7 1.7h1.7c0.9 0 1.7-0.8 1.7-1.7v-20.5l15.8 21.5c0.3 0.4 0.8 0.7 1.3 0.7h2c0.9 0 1.7-0.8 1.7-1.7v-28.2c-0.1-1-0.8-1.8-1.7-1.8zm-355.5-140.2c-30.6 0-52.7 22.8-52.7 52.2 0 32.7 26.1 52.4 57.4 52.4 20.1 0 31.6-6.6 39.6-11.9 3-2 3.5-6.3 0.8-8.8l-6.7-6.3c-1.8-1.7-4.5-2-6.6-0.7-0.9 0.5-12 7.7-26.3 7.7-19.5 0-30.7-11.8-33.5-22.1h74.8c2.8 0 5.2-2.1 5.5-4.9 0.2-1.9 0.3-3.6 0.3-5.3-0.1-30-23.4-52.3-52.6-52.3zm0 19.7c15.9 0 25.8 11.2 28.5 23.4h-56.9c2.9-13.2 12.6-23.4 28.4-23.4zm-71.7-17.4h12.7c3.8 0 6.5 3.8 5.2 7.4l-30.5 88.8c-0.8 2.3-2.9 3.8-5.3 3.8h-17.6c-2.4 0-4.6-1.6-5.3-3.9l-19.2-61.2-19.2 61.2c-0.7 2.3-2.9 3.9-5.3 3.9h-17.6c-2.4 0-4.5-1.5-5.3-3.8l-30.5-88.8c-1.2-3.6 1.4-7.4 5.2-7.4h12.7c2.4 0 4.6 1.6 5.3 3.9l21.4 68.3 21.7-68.3c0.7-2.3 2.9-3.9 5.3-3.9h12.5c2.4 0 4.6 1.6 5.3 3.9l21.8 68.6 21.3-68.6c0.8-2.3 2.9-3.9 5.4-3.9zm423.4-2.1c-19.3 0-40.4 6.4-55.4 16.3-1.5 1-2.4 2.8-2.4 4.6v75.6c0 3.1 2.5 5.6 5.6 5.6h12.1c3.1 0 5.6-2.5 5.6-5.6v-65.5c10.9-6.3 23.9-8.7 34.7-9 3-0.1 5.3-2.5 5.3-5.5v-10.9c-0.1-3.1-2.5-5.6-5.5-5.6zm-122.2-0.2c-30.6 0-52.7 22.8-52.7 52.2 0 32.7 26.1 52.4 57.3 52.4 20.1 0 31.6-6.6 39.6-11.9 3-2 3.5-6.3 0.8-8.8l-6.7-6.3c-1.8-1.7-4.5-2-6.6-0.7-0.9 0.5-12 7.7-26.3 7.7-19.5 0-30.7-11.8-33.5-22.1h74.8c2.8 0 5.2-2.1 5.5-4.9 0.2-1.9 0.3-3.6 0.3-5.3 0.1-30-23.3-52.3-52.5-52.3zm0 19.7c15.9 0 25.8 11.2 28.5 23.4h-56.8c2.9-13.2 12.5-23.4 28.3-23.4zm-111.7-19.7c-8.9 0-18.5 1.1-30.7 9v-39.4c0-3.1-2.5-5.6-5.5-5.6h-11.6c-3.1 0-5.5 2.5-5.5 5.6v105.4c0 2.5 1 4.9 2.4 7 9.3 14.1 29.9 22.6 46.6 22.6 22.4 0 34.7-7.9 43.2-17.8 8.3-9.7 12.5-21.6 12.5-34.4-0.2-28.4-22-52.4-51.4-52.4zm-3.1 83.5c-12.8 0-22-5.4-27.6-12.4v-34.8c4.1-6.6 13.4-15.1 27.6-15.1 18 0 31.3 14.9 31.3 31.2 0 17.4-14.8 31.1-31.3 31.1z"/>
</svg>