<?xml version="1.0" encoding="utf-8"?>
<!-- Generator: Adobe Illustrator 16.0.0, SVG Export Plug-In . SVG Version: 6.00 Build 0)  -->
<!DOCTYPE svg PUBLIC "-//W3C//DTD SVG 1.1//EN" "http://www.w3.org/Graphics/SVG/1.1/DTD/svg11.dtd">
<svg version="1.1" id="Layer_1" xmlns="http://www.w3.org/2000/svg" xmlns:xlink="http://www.w3.org/1999/xlink" x="0px" y="0px"
	 width="517px" height="376px" viewBox="0.25 0 517 376" enable-background="new 0.25 0 517 376" xml:space="preserve">
<g>
	<path opacity="0.35" fill="#03A2E9" enable-background="new    " d="M254.908,265.45c4.205,0,7.613,3.408,7.613,7.611
		c0,4.205-3.408,7.611-7.613,7.611c-4.201,0-7.61-3.406-7.61-7.611C247.298,268.858,250.707,265.45,254.908,265.45z"/>
	<circle opacity="0.35" fill="#03A2E9" enable-background="new    " cx="288.53" cy="236.27" r="7.612"/>
	<path opacity="0.06" fill="#03A2E9" enable-background="new    " d="M503.484,194.169c-5.127-3.539-11.611-4.771-16.602-8.505
		c-6.215-4.65-9.152-12.395-13.992-18.461c-4.026-4.623-8.635-8.698-13.709-12.137c-4.15-3.082-8.306-6.162-12.456-9.244
		c-7.511-5.57-15.319-11.284-24.454-13.268c-9.139-1.984-20.015,0.823-24.592,8.975c-1.805,3.634-2.79,7.617-2.885,11.672
		c-0.418,9.55-0.02,19.117,1.189,28.6c0.754,7.634,1.508,15.265,2.262,22.896c0.675,6.843-0.051,15.86-6.691,17.637
		c-14.732,3.938-9.764-17.849-13.027-24.521c-5-10.216-27.982-15.123-37.812-19.38c-6.131-2.656-12.605-5.594-16.312-11.162
		c-4.609-6.924-3.663-16.357-0.05-23.851c3.616-7.499,9.509-13.601,14.859-19.971c5.456-6.499,10.423-13.388,15.384-20.269
		c5.757-7.979,11.516-15.961,17.269-23.941c7.385-10.235,15.141-22.727,10.947-34.631c-2.554-4.471-8.237-6.024-12.711-3.475
		c-2.11,1.205-3.666,3.19-4.34,5.53c-1.835,6.425,3.062,14.629-1.622,19.392c-3.318,2.672-8.067,2.582-11.282-0.211
		c-3.036-2.804-5.351-6.303-6.739-10.195c-5.685-12.627-11.222-25.33-17.054-37.889c-1.848-3.972-3.767-10.77-9.355-10.098
		c-4.852,0.579-7.468,7.646-7.302,11.752c0.248,5.973,3.546,11.307,6.066,16.725c2.521,5.418,4.287,11.924,1.519,17.219
		c-3.507,6.705-12.391,8.209-19.95,7.986c-14.256-0.43-28.226-4.115-40.836-10.773c-0.33,7.007-0.659,14.015-0.988,21.021
		c-10.038-4.199-20.078-8.403-30.118-12.603c-1.947-0.815-3.898-1.634-5.849-2.45c-8.464-3.546-16.948-7.091-25.663-9.971
		c-4.947-1.633-9.967-3.049-14.982-4.461c-3.051-0.859-6.1-1.721-9.146-2.58c-6.02-2.131-12.4-3.041-18.775-2.676
		c-6.693,0.84-12.666,4.437-18.861,7.123c-13.814,5.998-31.683-0.037-46.486-0.141C68.938,15.51,30.252,8.28,1.931,27.677
		c-0.572,0.392-1.124,0.81-1.681,1.22v171.217c10.808-2.912,20.566-9.594,27.199-19.395c6.189-9.695,8.879-21.804,17.304-29.636
		c11.15-10.372,29.575-9.567,42.438-1.412c12.862,8.154,21.001,22.046,26.599,36.21c7.336,18.563,12.031,39.777,27.658,52.193
		c7.557,6.004,17.127,9.378,23.803,16.346c9.512,9.922,11.158,24.896,10.944,38.64c-0.216,13.744-1.696,28.004,3.312,40.803
		c5.006,12.799,19.357,23.33,32.225,18.504c-2.631,7.808-3.279,15.886-2.167,23.634h17.782c-0.398-2.463-0.794-4.929-1.192-7.392
		c4.712,1.328,8.745,3.978,12.18,7.392h75.376c6.179-5.876,15.424-7.617,23.988-8.978c9.558-1.525,20.265-2.797,28.095,2.892
		c2.312,1.681,4.167,3.847,5.961,6.086h23.642c-0.231-1.252-0.641-2.479-1.263-3.627c-1.93-3.502-3.092-7.377-3.41-11.36
		c0.232-5.535,4.676-9.932,9.222-13.095c4.546-3.161,9.683-5.892,12.664-10.556c3.671-5.741,3.278-13.135,5.554-19.557
		c5.508-15.539,25.164-22.451,30.895-37.91c1.377-3.252,1.531-6.896,0.436-10.254c-2.396-6.156-8.871-4.947-9.271-12.476
		c-0.382-7.2,5.623-14.26,11.729-17.269c8.411-4.146,18.22-3.812,27.598-4.062c9.374-0.25,19.479-1.495,26.358-7.871
		c8.733-9.007,8.52-23.388-0.486-32.126C504.8,195.248,504.158,194.688,503.484,194.169z"/>
</g>
</svg>
