<?xml version="1.0" encoding="utf-8"?>
<!-- Generator: Adobe Illustrator 16.0.0, SVG Export Plug-In . SVG Version: 6.00 Build 0)  -->
<!DOCTYPE svg PUBLIC "-//W3C//DTD SVG 1.1//EN" "http://www.w3.org/Graphics/SVG/1.1/DTD/svg11.dtd">
<svg version="1.1" id="Layer_1" xmlns="http://www.w3.org/2000/svg" xmlns:xlink="http://www.w3.org/1999/xlink" x="0px" y="0px"
	 width="786.035px" height="468.333px" viewBox="0 0 786.035 468.333" enable-background="new 0 0 786.035 468.333"
	 xml:space="preserve">
<path opacity="0.06" fill="#03A2E9" d="M769.905,69.641c-0.403-5.88,1.834-13.169-2.861-16.729
	c-1.672-1.068-3.569-1.734-5.542-1.941L644.238,29.388c-6.966-1.279-17.023-0.299-17.335,6.776
	c-0.172,3.946,3.355,7.855,1.793,11.484c-1.668,3.872-7.145,3.521-11.133,4.892c-6.19,2.127-9.3,9.477-8.702,15.991
	c1.086,6.478,3.597,12.634,7.346,18.025c-7.628-3.188-19.179-3.772-26.804-6.97c-1.125-8.857-3.389-17.535-6.742-25.812
	c-0.87-3.163-3.024-5.821-5.943-7.319c-1.932-0.5-3.955-0.522-5.895-0.064l-30.265,4.632c-2.536,0.114-4.958,1.06-6.905,2.681
	c-3.941,4.148-0.062,10.824-0.183,16.539c-0.135,6.434-5.849,11.655-12.046,13.381c-6.324,1.28-12.85,1.199-19.142-0.236
	l-42.316-6.577c12.46-3.978,23.557-11.383,32.012-21.364c5.57-6.6,8.532-18.916,0.483-22.041c-2.391-0.654-4.883-0.854-7.348-0.591
	c-19.173,0.152-34.264-15.856-52.214-22.599c-23.564-8.28-49.786-0.467-64.971,19.367l22.546,1.088
	c2.119-0.118,4.221,0.443,6.002,1.598c4.944,4.064-1.199,11.859-0.503,18.214c0.902,8.26,11.87,10.022,20.137,10.857
	c8.263,0.837,18.751,7.552,14.772,14.845c-41.543,14.311-83.82-27.969-127.45-22.766c-11.043,1.318-21.468,5.653-32.251,8.381
	C205.321,78.464,137.233,34.007,69.959,43.423c-14.958,2.547-29.66,6.428-43.928,11.582C16.874,58.013,7.322,61.263,0.67,68.233
	C0.438,68.478,0.222,68.74,0,68.995v100.822c24.856-5.141,50.143-8.066,75.561-8.73c2.842-0.357,5.722,0.191,8.234,1.562
	c4.798,3.329,3.533,10.512,3.276,16.344c-0.258,5.828,4.287,13.495,9.496,10.866c-6.128,5.314-0.888,15.324,4.994,20.916
	c5.883,5.589,12.969,13.305,9.369,20.58c-0.938,1.896-2.535,3.41-3.436,5.327c-2.67,5.65,1.565,12.245,6.564,16
	c5,3.75,11.122,6.375,14.596,11.574c3.475,5.197,1.895,14.297-4.314,15.026l-17.647-22.409
	c-6.029,6.248-10.164,14.086-11.922,22.594c18.714,15.297,21.53,46.437,5.859,64.844c-8.004,9.41-19.392,15.123-29.328,22.458
	c-9.938,7.339-19.135,17.786-19.11,30.138c0.045,21.344-1.699,41.174,6.297,60.957c1.415,3.501,2.87,6.985,4.327,10.469h383.477
	c5.825-4.005,12.392-7.313,18.646-10.129c16.492-7.423,35.378-17.411,37.993-35.311c0.088-3.506,0.751-6.97,1.956-10.262
	c1.829-2.904,4.37-5.297,7.386-6.942c48.134-31.815,97.072-64.013,152.093-81.397c2.859-0.901,3.197,0.1,6.113-0.61
	c4.084-2.353,1.379-8.882-2.536-11.514c-3.914-2.634-9.147-4.649-10.142-9.256c-0.729-3.389,1.27-6.716,1.79-10.146
	c1.272-8.419-8.805-16.194-16.627-12.828c-4.422-5.855,4.325-12.654,11.394-14.599c21.234-5.845,43.03-9.404,65.021-10.625
	c2.537-0.399,5.137,0.039,7.399,1.262c3.691,2.554,3.22,8.429,0.604,12.076c-2.62,3.65-6.689,5.943-9.95,9.033
	c-7.265,7.076-9.982,17.614-7.048,27.318c11.481,5.842,23.962,11.854,36.677,9.792c12.713-2.06,23.996-16.338,18.021-27.751
	c-5.567-10.62-22.283-13.019-25.159-24.66c-3.365-13.635,15.933-25.759,11.588-39.111c-1.906-5.846-7.733-9.293-12.204-13.514
	c-10.812-10.595-14-26.75-8.024-40.66c-14.782,2.601-29.912-2.131-40.574-12.695c-9.702-9.795-17.448-25.246-31.227-24.805
	c-12.646,0.4-23.538,15.153-35.362,10.655c-2.91-1.11-5.979-3.363-8.797-2.04c-1.873,1.213-3.08,3.223-3.281,5.443
	c-3.004,14.365,2.166,30.735-5.664,43.15c-8.521,13.508-28.23,15.381-38.558,27.567c-5.609,6.612-7.781,15.522-12.937,22.491
	c-5.155,6.975-16.093,11.406-22.277,5.327c6.258-12.867,2.801-28.354-8.343-37.337c-5.739-3.744-11.934-6.757-18.426-8.963
	c-7.255-3.072-14.153-6.916-20.583-11.472c-3.222-1.942-5.837-4.739-7.557-8.085c-1.363-4.189-1.179-8.726,0.516-12.784
	c6.394-18.329,22.411-31.607,41.606-34.488c8.236-1.119,17.82-0.726,23.271-6.999c2.88-3.317,4.396-8.341,8.58-9.689
	c2.679-0.539,5.457-0.191,7.927,0.977l30.737,10.816c3.431,1.549,7.204,2.178,10.95,1.814c3.854-0.52,6.653-3.918,6.42-7.801
	c-0.98-5.107-8.839-7.557-8.123-12.703c0.401-1.67,1.298-3.177,2.575-4.326c22.46-23.905,54.426-36.53,87.162-34.421
	c3.879,6.374-2.257,13.919-7.362,19.354c-5.104,5.441-9.209,15.162-3.032,19.352c2.527,1.289,5.346,1.92,8.184,1.841
	c7.569,1.024,14.922,3.258,21.785,6.609c10.621,4.62,21.039,9.679,31.253,15.173c-0.901-6.736-1.763-13.831,0.791-20.129
	c2.551-6.295,9.806-11.234,16.144-8.782c6.107,2.365,9.239,10.448,15.748,11.188c8.676,0.991,12.103-11.83,8.476-19.778
	C777.683,85.011,770.508,78.355,769.905,69.641z"/>
</svg>
