<?xml version="1.0" encoding="UTF-8" standalone="no"?>
<!DOCTYPE svg PUBLIC "-//W3C//DTD SVG 1.1//EN" "http://www.w3.org/Graphics/SVG/1.1/DTD/svg11.dtd">
<svg width="100%" height="100%" viewBox="0 0 448 512" version="1.1" xmlns="http://www.w3.org/2000/svg" xmlns:xlink="http://www.w3.org/1999/xlink" xml:space="preserve" xmlns:serif="http://www.serif.com/" style="fill-rule:evenodd;clip-rule:evenodd;stroke-linejoin:round;stroke-miterlimit:2;">
    <path d="M264.6,70.63L440.6,238.63C445.35,243.161 448.038,249.44 448.038,256.01C448.038,262.58 445.35,268.85 440.6,273.39L264.6,441.39C255.006,450.515 239.82,450.171 230.66,440.578C221.504,431.078 221.848,415.828 231.473,406.638L364.173,280.038L24.01,280.038C10.76,280.038 0,269.278 0,256.028C0,242.778 10.76,232.038 24.01,232.038L364.11,232.038L231.41,105.438C221.8,96.23 221.5,80.98 230.6,71.45C239.8,61.85 254.1,61.51 264.6,70.63Z" style="fill-rule:nonzero;"/>
</svg>
